<?xml version="1.0" encoding="UTF-8"?>
<!DOCTYPE svg PUBLIC "-//W3C//DTD SVG 1.1//EN" "http://www.w3.org/Graphics/SVG/1.1/DTD/svg11.dtd">
<!-- Creator: CorelDRAW X7 -->
<svg xmlns="http://www.w3.org/2000/svg" xml:space="preserve" width="174.04mm" height="34.967mm" version="1.1" style="shape-rendering:geometricPrecision; text-rendering:geometricPrecision; image-rendering:optimizeQuality; fill-rule:evenodd; clip-rule:evenodd"
viewBox="0 0 12503 2512"
 xmlns:xlink="http://www.w3.org/1999/xlink">
 <defs>
  <style type="text/css">
   <![CDATA[
    .fil1 {fill:white}
    .fil0 {fill:url(#id0)}
   ]]>
  </style>
  <linearGradient id="id0" gradientUnits="userSpaceOnUse" x1="906.817" y1="2174.64" x2="5015.27" y2="335.134">
   <stop offset="0" style="stop-opacity:1; stop-color:#03859C"/>
   <stop offset="1" style="stop-opacity:1; stop-color:#32D29B"/>
  </linearGradient>
 </defs>
 <g id="Layer_x0020_1">
  <metadata id="CorelCorpID_0Corel-Layer"/>
  <g id="_85062984">
   <path class="fil0" d="M2132 2176c74,0 137,-27 189,-81 52,-55 78,-132 78,-233 0,-101 -26,-178 -76,-232 -50,-55 -112,-82 -186,-82 -75,0 -138,27 -187,80 -50,54 -75,132 -75,234 0,101 25,178 73,233 49,54 111,81 184,81zm-193 -2176l-884 2497 -488 0 -567 -1600 415 0 396 1208 597 -1755 -323 -53 854 -297zm3588 1740c0,-66 -22,-119 -68,-158 -45,-39 -101,-58 -169,-58 -65,0 -119,18 -163,56 -45,38 -72,91 -83,160l483 0zm395 102c0,36 -2,73 -7,113l-873 0c6,78 31,138 76,179 44,41 98,62 163,62 96,0 163,-41 201,-122l411 0c-21,83 -59,157 -114,224 -55,66 -124,118 -207,155 -82,38 -175,57 -277,57 -124,0 -234,-27 -330,-79 -96,-53 -171,-128 -225,-226 -55,-98 -82,-212 -82,-343 0,-131 27,-245 80,-343 54,-98 129,-173 225,-226 96,-52 207,-79 332,-79 122,0 230,26 325,77 94,51 169,124 222,219 53,95 80,205 80,332zm-1343 322l0 328 -196 0c-140,0 -249,-35 -328,-103 -78,-68 -117,-180 -117,-335l0 -501 -154 0 0 -321 154 0 0 -307 386 0 0 307 253 0 0 321 -253 0 0 505c0,38 9,65 27,82 18,16 48,24 90,24l138 0zm-1288 -722c45,-69 102,-123 169,-163 68,-40 143,-60 226,-60l0 408 -106 0c-96,0 -169,21 -217,62 -48,42 -72,114 -72,218l0 585 -386 0 0 -1260 386 0 0 210zm-1159 1068c-123,0 -234,-27 -333,-79 -98,-53 -176,-128 -232,-226 -56,-98 -85,-212 -85,-343 0,-129 29,-243 86,-342 57,-98 136,-174 235,-227 99,-52 211,-79 334,-79 123,0 235,27 334,79 99,53 177,129 235,227 57,99 85,213 85,342 0,129 -29,243 -87,342 -57,99 -136,174 -236,227 -101,52 -212,79 -336,79z"/>
   <path class="fil1" d="M6566 2508c-104,0 -196,-19 -278,-56 -82,-37 -147,-88 -193,-153 -47,-66 -71,-141 -73,-227l219 0c8,74 38,136 92,186 53,51 131,76 233,76 98,0 175,-25 232,-74 56,-48 84,-111 84,-188 0,-60 -16,-109 -49,-147 -34,-37 -75,-66 -125,-85 -49,-20 -116,-41 -200,-64 -104,-27 -187,-54 -250,-81 -62,-27 -116,-70 -160,-127 -44,-58 -67,-136 -67,-234 0,-86 22,-162 66,-228 43,-66 105,-117 184,-153 79,-37 169,-55 272,-55 147,0 268,37 362,111 94,74 147,172 159,293l-226 0c-7,-60 -39,-113 -94,-159 -56,-46 -130,-69 -222,-69 -85,0 -155,23 -209,67 -55,44 -82,106 -82,186 0,57 16,104 49,140 32,36 72,64 119,82 48,19 114,41 200,65 104,28 187,57 251,84 63,28 117,71 162,129 45,58 68,137 68,236 0,77 -20,149 -61,217 -41,67 -101,122 -181,164 -79,42 -173,64 -282,64zm5486 4c-95,0 -180,-16 -255,-48 -76,-33 -135,-78 -179,-136 -43,-58 -67,-124 -72,-200l212 0c6,62 35,112 87,152 52,39 120,58 204,58 79,0 140,-17 185,-52 46,-34 68,-78 68,-131 0,-54 -24,-94 -72,-120 -48,-27 -123,-53 -223,-78 -92,-24 -167,-49 -225,-73 -58,-25 -108,-62 -149,-111 -41,-49 -62,-113 -62,-193 0,-63 19,-121 56,-174 38,-52 91,-94 161,-125 69,-31 148,-46 237,-46 137,0 247,34 331,103 85,70 130,164 136,285l-206 0c-4,-65 -30,-117 -77,-156 -48,-39 -111,-59 -191,-59 -74,0 -133,16 -176,48 -44,31 -66,73 -66,124 0,41 14,74 40,100 26,27 59,48 99,64 40,15 95,33 166,53 89,24 161,47 217,71 55,23 103,58 143,105 40,46 61,107 62,182 0,68 -19,129 -56,183 -38,54 -91,97 -159,128 -69,31 -148,46 -236,46zm-795 -20l-485 -546 0 546 -205 0 0 -1670 205 0 0 981 476 -548 287 0 -582 616 584 621 -280 0zm-2021 -621c0,-128 25,-240 76,-335 51,-96 123,-170 214,-222 91,-53 195,-79 312,-79 152,0 277,37 376,110 98,74 163,176 195,307l-221 0c-21,-75 -62,-134 -123,-178 -61,-44 -137,-66 -227,-66 -117,0 -212,41 -284,121 -72,81 -109,195 -109,342 0,149 37,264 109,345 72,82 167,122 284,122 90,0 166,-21 226,-63 60,-42 101,-102 124,-180l221 0c-33,126 -99,227 -199,303 -99,76 -223,114 -372,114 -117,0 -221,-26 -312,-79 -91,-53 -163,-127 -214,-223 -51,-97 -76,-210 -76,-339zm-713 641c-116,0 -221,-26 -315,-79 -94,-53 -168,-127 -221,-225 -54,-97 -81,-209 -81,-337 0,-126 28,-238 83,-335 55,-97 130,-172 224,-223 95,-52 201,-78 319,-78 117,0 223,26 318,78 95,51 169,126 224,222 55,96 83,208 83,336 0,128 -28,240 -85,337 -56,98 -133,172 -229,225 -96,53 -203,79 -320,79zm0 -181c73,0 142,-17 207,-51 65,-35 117,-87 157,-156 40,-69 60,-154 60,-253 0,-99 -20,-183 -59,-253 -39,-69 -90,-120 -153,-154 -63,-34 -132,-51 -206,-51 -75,0 -144,17 -206,51 -63,34 -113,85 -150,154 -38,70 -57,154 -57,253 0,101 19,186 56,255 36,69 86,121 147,155 62,34 130,50 204,50zm-996 -907l0 729c0,60 13,103 39,128 25,25 70,37 133,37l151 0 0 174 -185 0c-114,0 -200,-27 -257,-79 -57,-53 -86,-139 -86,-260l0 -729 -160 0 0 -169 160 0 0 -311 205 0 0 311 323 0 0 169 -323 0z"/>
   <path class="fil1" d="M10949 1154c-16,0 -29,-5 -39,-15 -11,-9 -16,-21 -16,-35 0,-15 5,-27 16,-37 10,-10 23,-14 39,-14 16,0 29,4 40,14 10,10 15,22 15,37 0,14 -5,26 -15,35 -11,10 -24,15 -40,15zm92 -156c0,-32 6,-59 19,-83 13,-23 31,-41 54,-54 23,-13 49,-19 79,-19 38,0 70,10 95,30 26,20 42,48 50,84l-99 0c-8,-23 -24,-35 -48,-35 -17,0 -31,7 -41,20 -10,13 -15,32 -15,57 0,24 5,43 15,56 10,14 24,20 41,20 24,0 40,-11 48,-34l99 0c-8,35 -25,63 -50,83 -26,20 -58,31 -95,31 -30,0 -56,-7 -79,-19 -23,-13 -41,-31 -54,-55 -13,-23 -19,-51 -19,-82zm485 156c-30,0 -57,-7 -80,-19 -24,-13 -43,-31 -56,-55 -14,-23 -21,-51 -21,-82 0,-31 7,-59 21,-83 14,-23 32,-41 56,-54 24,-13 51,-19 81,-19 29,0 56,6 80,19 24,13 43,31 57,54 13,24 20,52 20,83 0,31 -7,58 -21,82 -14,24 -33,42 -57,55 -24,12 -51,19 -80,19zm0 -81c17,0 32,-6 45,-19 12,-13 19,-32 19,-56 0,-25 -6,-43 -18,-56 -13,-13 -28,-20 -45,-20 -18,0 -33,7 -45,20 -12,12 -18,31 -18,56 0,24 6,43 17,56 12,13 27,19 45,19zm594 -230c38,0 68,11 90,34 22,23 34,55 34,95l0 177 -93 0 0 -164c0,-20 -5,-35 -15,-46 -11,-10 -25,-16 -43,-16 -18,0 -32,6 -42,16 -11,11 -16,26 -16,46l0 164 -92 0 0 -164c0,-20 -5,-35 -16,-46 -10,-10 -24,-16 -42,-16 -19,0 -33,6 -43,16 -10,11 -16,26 -16,46l0 164 -92 0 0 -303 92 0 0 38c10,-12 22,-22 37,-30 16,-7 33,-11 52,-11 23,0 43,5 61,15 18,9 32,23 42,41 11,-16 25,-30 43,-40 18,-11 38,-16 59,-16z"/>
  </g>
 </g>
</svg>
